{"title":"Ben Kweller+Selena Gomez - Hold On (from Rudderless) 2014 ","uid":11206337,"size":62364155,"categoryP":"video","categoryS":"music_videos","magnet":"?xt=urn:btih:f14ab47e99759da7f549f3c8a948355ec5a7420c&amp;dn=Ben+Kweller%2BSelena+Gomez+-+Hold+On+%28from+Rudderless%29+2014+&amp;tr=udp%3A%2F%2Ftracker.openbittorrent.com%3A80&amp;tr=udp%3A%2F%2Fopen.demonii.com%3A1337&amp;tr=udp%3A%2F%2Ftracker.coppersurfer.tk%3A6969&amp;tr=udp%3A%2F%2Fexodus.desync.com%3A6969","seeders":2,"leechers":0,"uploader":"MeRaDil","files":-1,"time":1413223236,"description":"BEN KWELLER &amp; SELENA GOMEZ - HOLD ON (from RUDDERLESS)\n\n\n\nPROMO MPEG4 MUSIC VID\n\n &lt;a href=&quot;\nhttp://gifyu.com/images/BenSelena.png&quot; rel=&quot;nofollow&quot; target=&quot;_NEW&quot;&gt;\nhttp://gifyu.com/images/BenSelena.png&lt;/a&gt;\n\n\nGeneral\nComplete name                            : Ben Kweller &amp; Selena Gomez - Hold On (from Rudderless).mp4\nFormat                                   : MPEG-4\nFormat profile                           : Base Media\nCodec ID                                 : isom\nFile size                                : 59.5 MiB\nDuration                                 : 3mn 38s\nOverall bit rate                         : 2 287 Kbps\nMusicVid name                            : Hold On\nMusicVid name/More                       : Ben Kweller &amp; Selena Gomez\nAlbum                                    : OST.Rudderless\nPerformer                                : Ben Kweller &amp; Selena Gomez\nGenre                                    : Soundtrack\nContentType                              : Music Video\nRecorded date                            : 2014\nCopyright                                : Rudderless\nCover                                    : Yes\nComment                                  : from the musical drama Rudderless\nRating                                   : ***\nMake                                     : MeRaDil\noday                                     : 09-10-2014 USA\nurl                                      : http://www.rudderlessthemovie.com\nrelease                                  : USA - october 9 - 2014\nPart_ID                                  : Hold On\n\nVideo\nID                                       : 1\nFormat                                   : AVC\nFormat/Info                              : Advanced Video Codec\nFormat profile                           : &lt;a class=&quot;__cf_email__&quot; href=&quot;/cdn-cgi/l/email-protection&quot; data-cfemail=&quot;9cd4f5fbf4dcd0a8b2ac&quot;&gt;[email&amp;#160;protected]&lt;/a&gt;&lt;script cf-hash='f9e31' type=&quot;text/javascript&quot;&gt;\n/* &lt;![CDATA[ */!function(){try{var t=&quot;currentScript&quot;in document?document.currentScript:function(){for(var t=document.getElementsByTagName(&quot;script&quot;),e=t.length;e--;)if(t[e].getAttribute(&quot;cf-hash&quot;))return t[e]}();if(t&amp;&amp;t.previousSibling){var e,r,n,i,c=t.previousSibling,a=c.getAttribute(&quot;data-cfemail&quot;);if(a){for(e=&quot;&quot;,r=parseInt(a.substr(0,2),16),n=2;a.length-n;n+=2)i=parseInt(a.substr(n,2),16)^r,e+=String.fromCharCode(i);e=document.createTextNode(e),c.parentNode.replaceChild(e,c)}}}catch(u){}}();/* ]]&gt; */&lt;/script&gt;\nFormat settings, CABAC                   : Yes\nFormat settings, ReFrames                : 3 frames\nCodec ID                                 : avc1\nCodec ID/Info                            : Advanced Video Coding\nDuration                                 : 3mn 38s\nBit rate                                 : 2 022 Kbps\nWidth                                    : 1 920 pixels\nHeight                                   : 1 080 pixels\nDisplay aspect ratio                     : 16:9\nFrame rate mode                          : Variable\nFrame rate                               : 23.976 fps\nMinimum frame rate                       : 23.974 fps\nMaximum frame rate                       : 23.981 fps\nColor space                              : YUV\nChroma subsampling                       : 4:2:0\nBit depth                                : 8 bits\nScan type                                : Progressive\nBits/(Pixel*Frame)                       : 0.041\nStream size                              : 52.6 MiB (88%)\n\nAudio\nID                                       : 2\nFormat                                   : AAC\nFormat/Info                              : Advanced Audio Codec\nFormat profile                           : LC\nCodec ID                                 : 40\nDuration                                 : 3mn 38s\nBit rate mode                            : Constant\nBit rate                                 : 256 Kbps\nChannel(s)                               : 2 channels\nChannel positions                        : Front: L R\nSampling rate                            : 44.1 KHz\nCompression mode                         : Lossy\nStream size                              : 6.66 MiB (11%)\n\nBen Kweller * Selena Gomez * Rudderless * Promo * Soundtrack\n &lt;a href=&quot;\nhttps://thepiratebay.se/user/MeRaDil&quot; rel=&quot;nofollow&quot; target=&quot;_NEW&quot;&gt;\nhttps://thepiratebay.se/user/MeRaDil&lt;/a&gt;\n\n:)","torrent":{"xt":"urn:btih:f14ab47e99759da7f549f3c8a948355ec5a7420c","amp;dn":"Ben+Kweller%2BSelena+Gomez+-+Hold+On+%28from+Rudderless%29+2014+","amp;tr":["udp%3A%2F%2Ftracker.openbittorrent.com%3A80","udp%3A%2F%2Fopen.demonii.com%3A1337","udp%3A%2F%2Ftracker.coppersurfer.tk%3A6969","udp%3A%2F%2Fexodus.desync.com%3A6969"],"infoHash":"f14ab47e99759da7f549f3c8a948355ec5a7420c","infoHashBuffer":{"type":"Buffer","data":[241,74,180,126,153,117,157,167,245,73,243,200,169,72,53,94,197,167,66,12]},"announce":[],"urlList":[]}}